<?xml version="1.0" encoding="utf-8"?>
<!-- Generator: Adobe Illustrator 16.0.3, SVG Export Plug-In . SVG Version: 6.00 Build 0)  -->
<!DOCTYPE svg PUBLIC "-//W3C//DTD SVG 1.1//EN" "http://www.w3.org/Graphics/SVG/1.1/DTD/svg11.dtd">
<svg version="1.1" xmlns="http://www.w3.org/2000/svg" xmlns:xlink="http://www.w3.org/1999/xlink" x="0px" y="0px"
	 width="841.891px" height="595.275px" viewBox="0 0 841.891 595.275" enable-background="new 0 0 841.891 595.275"
	 xml:space="preserve">
<g id="Capa_6">
	<polyline fill="#FFFFFF" stroke="#008869" stroke-width="11" stroke-miterlimit="10" points="535.83,223.992 535.893,61.441 
		320.978,224.953 320.547,228.775 534.891,228.775 	"/>
	<polyline fill="#FFFFFF" stroke="#008869" stroke-width="11" stroke-miterlimit="10" points="277.78,223.992 277.633,61.441 
		492.505,224.953 492.893,228.775 278.891,228.775 	"/>
</g>
<g id="Capa_7">
	<g>
		<g>
			<g>
				<g>
					<g>
						<path fill="#008869" d="M295.391,122.775c0,0,0.704,1.045,1.761,2.613c0.592,0.749,1.282,1.622,2.021,2.558
							c0.807,0.872,1.634,1.874,2.552,2.769c1.809,1.828,3.755,3.553,5.275,4.757c0.76,0.603,1.391,1.125,1.846,1.462
							c0.456,0.335,0.717,0.527,0.717,0.527l2.789-5.124c0,0-0.286-0.101-0.786-0.278c-0.499-0.18-1.188-0.472-2.035-0.808
							c-1.692-0.671-3.891-1.688-6.037-2.855c-1.087-0.566-2.095-1.244-3.098-1.833c-0.948-0.663-1.834-1.282-2.593-1.813
							C296.355,123.565,295.391,122.775,295.391,122.775z"/>
					</g>
					<g>
						<path fill="#008869" d="M309.563,137.461c0,0,0.283,0.151,0.779,0.417c0.495,0.264,1.199,0.655,2.064,1.064
							c1.718,0.857,4.032,1.936,6.374,2.911c4.681,1.971,9.431,3.607,9.431,3.607l1.936-5.503c0,0-4.637-1.599-9.104-3.481
							c-2.239-0.931-4.424-1.951-6.035-2.755c-0.817-0.385-1.469-0.749-1.931-0.995c-0.462-0.247-0.726-0.388-0.726-0.388
							L309.563,137.461z"/>
					</g>
					<g>
						<path fill="#008869" d="M339.885,146.294l-1.289-10.551l-0.001,0.002v-0.003c0,0-1.779,1.943-3.559,3.886
							c-1.799,1.929-3.599,3.858-3.599,3.858s0.261,2.627,0.522,5.253c0.284,2.628,0.569,5.256,0.569,5.256s1.847-1.921,3.692-3.843
							C338.054,148.224,339.885,146.294,339.885,146.294z"/>
						<polygon fill="#008869" points="328.211,145.46 331.367,143.462 330.146,139.958 						"/>
					</g>
				</g>
			</g>
		</g>
		<g>
			<g>
				<g>
					<g>
						<path fill="#008869" d="M322.891,117.275c0,0-0.182,0.938-0.454,2.343c-0.142,0.698-0.285,1.506-0.476,2.364
							c-0.234,0.851-0.485,1.757-0.736,2.665c-0.443,1.804-1.133,3.555-1.582,4.859c-0.232,0.649-0.426,1.189-0.562,1.568
							c-0.16,0.372-0.252,0.585-0.252,0.585l5.735,1.067c0,0,0.005-0.246,0.013-0.676c-0.017-0.433-0.041-1.051-0.07-1.793
							c-0.076-1.482-0.099-3.427-0.375-5.374c-0.111-0.962-0.223-1.924-0.327-2.826c-0.149-0.898-0.324-1.731-0.457-2.439
							C323.073,118.212,322.891,117.275,322.891,117.275z"/>
					</g>
					<g>
						<path fill="#008869" d="M318.829,131.659c0,0-0.185,0.883-0.463,2.208c-0.152,0.659-0.269,1.443-0.504,2.256
							c-0.226,0.815-0.466,1.685-0.706,2.554c-0.429,1.757-1.104,3.429-1.524,4.713c-0.417,1.288-0.792,2.102-0.792,2.102
							l5.416,2.168c-0.001,0,0.406-0.893,0.859-2.281c0.458-1.386,1.182-3.203,1.647-5.091c0.259-0.937,0.518-1.874,0.76-2.752
							c0.251-0.876,0.381-1.72,0.544-2.43c0.299-1.427,0.498-2.378,0.498-2.378L318.829,131.659z"/>
					</g>
					<g>
						<path fill="#008869" d="M313.874,154.266c0,0,2.48,0.446,5.036,0.752c2.548,0.32,5.166,0.499,5.166,0.499l-0.002-0.001
							l0.003,0c0,0-0.431-0.477-1.076-1.192c-0.649-0.709-1.511-1.633-2.44-2.547c-1.83-1.829-3.714-3.539-3.714-3.539
							s-2.531-0.198-5.008-0.515c-1.23-0.147-2.491-0.348-3.425-0.509c-0.931-0.167-1.551-0.278-1.551-0.278s1.82,1.696,3.57,3.537
							C312.191,152.299,313.874,154.266,313.874,154.266z"/>
						<path fill="#008869" d="M314.84,145.491c0,0,0.511,0.666,1.021,1.331c0.504,0.683,1.008,1.366,1.008,1.366
							s0.843-0.124,1.686-0.247c0.851-0.141,1.7-0.281,1.7-0.281L314.84,145.491z"/>
					</g>
				</g>
			</g>
		</g>
		<g>
			<g>
				<g>
					<g>
						<path fill="#008869" d="M308.891,109.275c0,0-0.037,1.212-0.093,3.032c0.02,0.916,0.042,1.984,0.066,3.129
							c0.086,1.139,0.14,2.374,0.268,3.597c0.246,2.448,0.603,4.903,0.936,6.727c0.32,1.831,0.582,3.04,0.581,3.041l5.479-2.002
							c0.001,0-0.582-1.026-1.392-2.598c-0.825-1.568-1.844-3.693-2.775-5.876c-0.471-1.09-0.871-2.203-1.286-3.247
							c-0.356-1.063-0.689-2.054-0.976-2.904C309.214,110.435,308.891,109.275,308.891,109.275z"/>
					</g>
					<g>
						<path fill="#008869" d="M310.648,128.801c0,0,0.106,0.287,0.293,0.789c0.188,0.501,0.445,1.223,0.79,2.068
							c0.667,1.703,1.593,3.953,2.564,6.167c1.939,4.435,3.963,8.765,3.963,8.764l5.298-2.441c0,0-2.022-4.33-3.913-8.653
							c-0.949-2.162-1.841-4.333-2.481-5.966c-0.333-0.814-0.576-1.499-0.755-1.977c-0.178-0.478-0.279-0.751-0.279-0.751
							L310.648,128.801z"/>
					</g>
					<g>
						<path fill="#008869" d="M325.373,155.283c0,0,1.764-1.971,3.527-3.942c1.745-1.998,3.49-3.996,3.49-3.996l-0.002,0.001
							l0.002-0.002c0,0-2.631,0.016-5.262,0.032c-2.627,0.04-5.253,0.079-5.253,0.079s-1.754,1.945-3.508,3.89
							c-1.769,1.926-3.536,3.852-3.536,3.852s2.632,0.006,5.263,0.011C322.734,155.246,325.373,155.283,325.373,155.283z"/>
						<polygon fill="#008869" points="318.259,146.589 321.847,147.39 323.556,144.147 						"/>
					</g>
				</g>
			</g>
		</g>
		<g>
			<g>
				<g>
					<g>
						<path fill="#008869" d="M294.891,133.275c0,0,0.93,0.248,2.324,0.62c1.385,0.402,3.21,0.972,5.031,1.583
							c3.669,1.228,7.337,2.456,7.337,2.456l0.739-5.787c0,0-3.85,0.219-7.698,0.438c-1.937,0.109-3.882,0.26-5.329,0.401
							C295.853,133.16,294.891,133.275,294.891,133.275z"/>
					</g>
					<g>
						<path fill="#008869" d="M309.583,137.934c0,0,0.955,0.117,2.388,0.293c0.722,0.078,1.564,0.168,2.468,0.266
							c0.913,0.076,1.887,0.156,2.86,0.236c1.962,0.127,3.952,0.176,5.461,0.154c0.76-0.031,1.393-0.056,1.836-0.074
							c0.442-0.013,0.699-0.041,0.699-0.04l-0.441-5.817c0,0-0.214,0.024-0.603,0.033c-0.386,0.016-0.937,0.038-1.598,0.065
							c-1.335,0.019-3.138-0.024-4.961-0.142c-0.915-0.076-1.831-0.151-2.689-0.222c-0.865-0.093-1.672-0.181-2.363-0.255
							c-1.391-0.171-2.317-0.285-2.317-0.285L309.583,137.934z"/>
					</g>
					<g>
						<path fill="#008869" d="M333.399,133.792c0.001,0-1.945-1.782-3.321-3.799c-0.676-0.981-1.376-2.093-1.807-2.892
							c-0.446-0.812-0.703-1.361-0.703-1.361v0.003l-0.001-0.003c0,0,0.071,0.607,0.121,1.538c0.062,0.94-0.003,2.14-0.09,3.388
							c-0.094,1.24-0.259,2.496-0.415,3.442c-0.157,0.947-0.294,1.553-0.294,1.553s0.279,0.587,0.735,1.42
							c0.455,0.832,1.105,1.935,1.826,3.021c0.722,1.079,1.49,2.18,2.135,2.932c0.643,0.755,1.109,1.246,1.109,1.246
							s0.163-0.672,0.348-1.667c0.188-1.014,0.367-2.268,0.475-3.636C333.747,136.267,333.399,133.793,333.399,133.792z"/>
						<path fill="#008869" d="M325.295,138.769c0,0,0.427-0.779,0.809-1.554c0.387-0.776,0.729-1.547,0.729-1.547
							s-0.537-0.674-1.03-1.354c-0.497-0.679-0.949-1.361-0.949-1.361L325.295,138.769z"/>
					</g>
				</g>
			</g>
		</g>
		<g>
			<g>
				<g>
					<g>
						<path fill="#008869" d="M330.391,115.275c0,0-0.813,0.781-2.033,1.952c-0.563,0.628-1.248,1.357-1.947,2.172
							c-0.653,0.835-1.416,1.713-2.074,2.642c-1.366,1.838-2.643,3.749-3.562,5.181c-0.915,1.435-1.525,2.392-1.525,2.392
							l5.371,2.275c0,0,0.265-1.075,0.661-2.687c0.399-1.612,0.968-3.726,1.642-5.813c0.314-1.059,0.729-2.059,1.071-3.042
							c0.384-0.953,0.783-1.83,1.112-2.6C329.877,116.264,330.391,115.275,330.391,115.275z"/>
					</g>
					<g>
						<path fill="#008869" d="M319.249,129.614c0,0-0.431,1.024-1.076,2.559c-0.644,1.528-1.482,3.558-2.371,5.525
							c-0.435,0.995-0.891,1.967-1.332,2.864c-0.424,0.914-0.86,1.729-1.233,2.428c-0.368,0.705-0.679,1.287-0.922,1.672
							c-0.233,0.394-0.367,0.619-0.367,0.619l5.015,2.981c0,0,0.148-0.25,0.408-0.689c0.272-0.436,0.613-1.072,1.014-1.838
							c0.408-0.764,0.884-1.656,1.333-2.624c0.475-0.964,0.957-1.995,1.409-3.028c0.932-2.064,1.782-4.125,2.427-5.654
							c0.641-1.523,1.067-2.539,1.067-2.539L319.249,129.614z"/>
					</g>
					<g>
						<path fill="#008869" d="M308.377,154.762c0,0,2.375,0.976,4.96,1.721c1.288,0.381,2.616,0.712,3.583,0.92
							c0.989,0.204,1.648,0.34,1.648,0.34l-0.002-0.002l0.003,0.001c0,0-1.105-2.463-2.422-4.733
							c-1.337-2.307-2.81-4.423-2.81-4.423s-2.56-0.51-4.988-1.208c-2.467-0.704-4.799-1.653-4.799-1.653s0.346,0.533,0.865,1.331
							c0.52,0.822,1.161,1.897,1.755,3.014C307.38,152.299,308.377,154.762,308.377,154.762z"/>
						<path fill="#008869" d="M311.947,145.282c0,0,0.373,0.805,0.745,1.611c0.187,0.412,0.359,0.82,0.479,1.125
							c0.122,0.308,0.203,0.514,0.203,0.514s0.226-0.009,0.563-0.022c0.344-0.012,0.792-0.04,1.231-0.078
							c0.896-0.084,1.791-0.168,1.791-0.168L311.947,145.282z"/>
					</g>
				</g>
			</g>
		</g>
	</g>
	<g>
		<g>
			<g>
				<g>
					<g>
						<path fill="#008869" d="M516.391,123.775c0,0-0.965,0.79-2.412,1.975c-0.759,0.53-1.645,1.149-2.594,1.813
							c-1.002,0.588-2.01,1.266-3.097,1.833c-2.146,1.167-4.345,2.184-6.037,2.855c-0.847,0.336-1.536,0.628-2.035,0.808
							c-0.5,0.177-0.786,0.278-0.786,0.278l2.789,5.124c0,0,0.261-0.192,0.717-0.527c0.455-0.338,1.086-0.859,1.846-1.462
							c1.521-1.205,3.467-2.93,5.275-4.758c0.918-0.896,1.744-1.897,2.551-2.769c0.74-0.936,1.431-1.809,2.022-2.558
							C515.687,124.82,516.391,123.775,516.391,123.775z"/>
					</g>
					<g>
						<path fill="#008869" d="M499.43,133.337c0,0-0.264,0.141-0.726,0.388c-0.462,0.246-1.113,0.61-1.931,0.995
							c-1.611,0.805-3.796,1.824-6.035,2.755c-4.467,1.882-9.104,3.481-9.104,3.481l1.936,5.503c0,0,4.75-1.636,9.431-3.607
							c2.342-0.975,4.656-2.053,6.374-2.911c0.865-0.41,1.569-0.8,2.064-1.064c0.496-0.265,0.779-0.417,0.779-0.417L499.43,133.337z
							"/>
					</g>
					<g>
						<path fill="#008869" d="M471.885,147.257l7.297,7.761v-0.003l0.002,0.003c0,0,0.303-2.63,0.606-5.261
							c0.278-2.629,0.558-5.259,0.558-5.259s-1.784-1.938-3.567-3.875c-1.764-1.951-3.528-3.902-3.528-3.902
							s-0.333,2.633-0.667,5.266C472.235,144.622,471.885,147.257,471.885,147.257z"/>
						<polygon fill="#008869" points="481.635,140.957 480.418,144.475 483.57,146.459 						"/>
					</g>
				</g>
			</g>
		</g>
		<g>
			<g>
				<g>
					<g>
						<path fill="#008869" d="M488.891,118.275c0,0-0.184,0.937-0.457,2.342c-0.133,0.708-0.308,1.541-0.458,2.439
							c-0.104,0.902-0.216,1.864-0.327,2.826c-0.275,1.947-0.298,3.892-0.374,5.374c-0.029,0.742-0.054,1.36-0.07,1.793
							c0.008,0.43,0.013,0.676,0.013,0.676l5.735-1.067c0,0-0.092-0.213-0.252-0.585c-0.136-0.378-0.329-0.919-0.562-1.568
							c-0.449-1.304-1.139-3.055-1.583-4.859c-0.25-0.907-0.501-1.814-0.735-2.665c-0.19-0.857-0.335-1.666-0.476-2.364
							C489.072,119.213,488.891,118.275,488.891,118.275z"/>
					</g>
					<g>
						<path fill="#008869" d="M487.217,133.726c0,0,0.199,0.951,0.498,2.378c0.163,0.71,0.293,1.554,0.544,2.43
							c0.242,0.878,0.501,1.815,0.76,2.752c0.466,1.889,1.189,3.706,1.647,5.091c0.453,1.388,0.86,2.281,0.859,2.281l5.416-2.168
							c0,0-0.375-0.814-0.792-2.102c-0.42-1.284-1.096-2.956-1.524-4.713c-0.24-0.87-0.48-1.739-0.706-2.554
							c-0.235-0.813-0.352-1.597-0.504-2.256c-0.278-1.325-0.463-2.208-0.463-2.208L487.217,133.726z"/>
					</g>
					<g>
						<path fill="#008869" d="M497.874,155.285c0,0,1.696-1.96,3.468-3.781c1.764-1.835,3.598-3.527,3.598-3.528l-0.003,0.001
							l0.003-0.002c0,0-0.621,0.109-1.552,0.272c-0.934,0.156-2.199,0.355-3.43,0.496c-2.479,0.305-5.012,0.489-5.012,0.489
							c0,0-1.893,1.699-3.731,3.515c-0.933,0.908-1.805,1.826-2.457,2.53c-0.649,0.709-1.082,1.183-1.082,1.183
							c0,0,2.617-0.158,5.165-0.46C495.395,155.713,497.874,155.285,497.874,155.285z"/>
						<path fill="#008869" d="M491.525,148.659c0,0,0.854,0.14,1.706,0.279c0.847,0.122,1.692,0.244,1.692,0.244
							s0.501-0.681,1.001-1.363c0.508-0.664,1.016-1.328,1.016-1.328L491.525,148.659z"/>
					</g>
				</g>
			</g>
		</g>
		<g>
			<g>
				<g>
					<g>
						<path fill="#008869" d="M502.891,110.275c0,0-0.324,1.16-0.81,2.899c-0.285,0.85-0.618,1.842-0.975,2.904
							c-0.416,1.044-0.816,2.157-1.286,3.247c-0.932,2.183-1.951,4.308-2.775,5.876c-0.81,1.571-1.393,2.598-1.392,2.598
							l5.479,2.002c-0.001,0,0.261-1.209,0.58-3.041c0.334-1.823,0.69-4.278,0.937-6.727c0.128-1.223,0.182-2.458,0.268-3.597
							c0.024-1.145,0.047-2.214,0.066-3.13C502.928,111.488,502.891,110.275,502.891,110.275z"/>
					</g>
					<g>
						<path fill="#008869" d="M495.653,127.799c0,0-0.102,0.273-0.279,0.751c-0.179,0.478-0.422,1.163-0.755,1.977
							c-0.641,1.634-1.532,3.804-2.481,5.966c-1.891,4.323-3.913,8.653-3.913,8.653l5.298,2.441c0,0,2.023-4.33,3.963-8.764
							c0.972-2.213,1.897-4.463,2.564-6.167c0.345-0.845,0.603-1.567,0.79-2.068c0.187-0.502,0.293-0.789,0.293-0.789
							L495.653,127.799z"/>
					</g>
					<g>
						<path fill="#008869" d="M486.373,156.268c0,0,2.641-0.018,5.281-0.036c2.634,0.014,5.268,0.027,5.268,0.027l-0.003-0.001
							l0.003,0c0,0-1.759-1.94-3.518-3.879c-1.744-1.959-3.488-3.918-3.488-3.918s-2.621-0.056-5.243-0.112
							c-2.627-0.034-5.253-0.067-5.253-0.067s1.729,2.01,3.457,4.02C484.625,154.284,486.373,156.268,486.373,156.268z"/>
						<polygon fill="#008869" points="488.225,145.147 489.946,148.396 493.521,147.588 						"/>
					</g>
				</g>
			</g>
		</g>
		<g>
			<g>
				<g>
					<g>
						<path fill="#008869" d="M516.891,134.275c0,0-0.962-0.116-2.404-0.289c-1.447-0.141-3.393-0.292-5.329-0.401
							c-3.849-0.219-7.698-0.438-7.698-0.438l0.739,5.787c0,0,3.668-1.228,7.337-2.456c1.821-0.611,3.646-1.181,5.031-1.583
							C515.961,134.523,516.891,134.275,516.891,134.275z"/>
					</g>
					<g>
						<path fill="#008869" d="M501.459,133.147c0,0-0.927,0.114-2.317,0.285c-0.691,0.074-1.498,0.162-2.363,0.255
							c-0.858,0.07-1.774,0.146-2.689,0.222c-1.823,0.118-3.626,0.16-4.961,0.142c-0.661-0.027-1.212-0.049-1.598-0.065
							c-0.389-0.009-0.603-0.034-0.603-0.033l-0.441,5.817c0,0,0.257,0.027,0.699,0.04c0.443,0.018,1.076,0.043,1.836,0.074
							c1.509,0.022,3.499-0.026,5.461-0.154c0.974-0.081,1.947-0.161,2.86-0.236c0.903-0.097,1.746-0.188,2.468-0.266
							c1.433-0.176,2.388-0.293,2.388-0.293L501.459,133.147z"/>
					</g>
					<g>
						<path fill="#008869" d="M478.399,134.758c0.001,0-0.365,2.476-0.162,5.186c0.096,1.377,0.262,2.628,0.439,3.644
							c0.174,0.996,0.33,1.668,0.33,1.668l0.001-0.002v0.003c0,0,0.473-0.487,1.125-1.239c0.658-0.737,1.432-1.843,2.164-2.916
							c0.729-1.083,1.389-2.183,1.85-3.013c0.461-0.829,0.744-1.416,0.744-1.417c0,0-0.134-0.606-0.286-1.553
							c-0.152-0.947-0.312-2.204-0.401-3.444c-0.085-1.247-0.139-2.453-0.086-3.388c0.051-0.932,0.122-1.54,0.122-1.54
							s-0.257,0.547-0.702,1.354c-0.431,0.795-1.128,1.9-1.811,2.88C480.352,132.988,478.399,134.758,478.399,134.758z"/>
						<path fill="#008869" d="M486.928,133.951c0,0-0.453,0.686-0.95,1.368c-0.493,0.683-1.03,1.361-1.03,1.361
							s0.343,0.768,0.729,1.541c0.383,0.772,0.81,1.547,0.81,1.547L486.928,133.951z"/>
					</g>
				</g>
			</g>
		</g>
		<g>
			<g>
				<g>
					<g>
						<path fill="#008869" d="M481.391,116.275c0,0,0.514,0.989,1.284,2.472c0.328,0.77,0.728,1.646,1.111,2.6
							c0.344,0.983,0.758,1.983,1.072,3.042c0.674,2.088,1.242,4.202,1.642,5.813c0.396,1.612,0.661,2.687,0.661,2.687l5.371-2.275
							c0,0-0.61-0.957-1.525-2.392c-0.919-1.433-2.195-3.343-3.562-5.181c-0.658-0.929-1.422-1.807-2.075-2.642
							c-0.698-0.814-1.383-1.543-1.946-2.172C482.204,117.057,481.391,116.275,481.391,116.275z"/>
					</g>
					<g>
						<path fill="#008869" d="M487.161,132.89c0,0,0.427,1.016,1.067,2.539c0.645,1.53,1.495,3.59,2.427,5.654
							c0.452,1.033,0.935,2.063,1.409,3.028c0.449,0.968,0.925,1.86,1.333,2.624c0.4,0.767,0.741,1.403,1.014,1.838
							c0.26,0.439,0.408,0.689,0.408,0.689l5.015-2.981c0,0-0.134-0.225-0.367-0.619c-0.243-0.385-0.554-0.968-0.922-1.672
							c-0.373-0.699-0.81-1.514-1.233-2.428c-0.441-0.897-0.897-1.869-1.332-2.864c-0.889-1.968-1.728-3.997-2.371-5.525
							c-0.646-1.535-1.076-2.559-1.076-2.559L487.161,132.89z"/>
					</g>
					<g>
						<path fill="#008869" d="M503.377,155.789c0,0,1.014-2.458,2.237-4.686c0.604-1.119,1.247-2.188,1.772-3.009
							c0.524-0.799,0.873-1.331,0.873-1.331l-0.002,0.002l0.002-0.002c0,0-2.333,0.939-4.808,1.635
							c-2.432,0.686-4.999,1.182-4.998,1.182c0,0-1.484,2.104-2.835,4.397c-1.335,2.258-2.456,4.704-2.456,4.704
							s0.661-0.13,1.652-0.324c0.97-0.199,2.295-0.516,3.59-0.887C500.997,156.746,503.377,155.789,503.377,155.789z"/>
						<path fill="#008869" d="M494.819,149.263c0,0,0.898,0.082,1.797,0.165c0.441,0.038,0.891,0.064,1.235,0.076
							c0.339,0.012,0.564,0.021,0.564,0.021s0.081-0.205,0.203-0.513c0.118-0.303,0.289-0.711,0.475-1.122
							c0.369-0.803,0.739-1.607,0.739-1.607L494.819,149.263z"/>
					</g>
				</g>
			</g>
		</g>
	</g>
</g>
<g id="Capa_4">
	<polyline fill="#FFFFFF" stroke="#008869" stroke-width="3" stroke-miterlimit="10" points="406.83,358.992 406.893,197.441 
		191.978,359.453 191.547,361.775 405.891,361.775 	"/>
	<polyline fill="#FFFFFF" stroke="#00735C" stroke-width="3" stroke-miterlimit="10" points="406.78,358.992 406.633,197.441 
		621.505,359.453 621.892,361.775 407.891,361.775 	"/>
</g>
<g id="Capa_3">
	<polyline fill="#00735C" points="191.547,209.539 406.891,420.56 407.114,98 191.565,186.043 	"/>
	<polyline fill="#008869" points="622.113,209.539 406.77,420.56 406.546,98 622.095,186.043 	"/>
</g>
<g id="Capa_5">
	<polygon fill="#FFFFFF" points="364.734,321.472 331.971,283.682 297.484,321.472 331.971,352.682 	"/>
	<polygon fill="#FFFFFF" points="449.484,321.472 482.248,283.682 516.734,321.472 482.248,352.682 	"/>
</g>
<g id="Capa_2">
	<polygon fill="#666666" stroke="#666666" stroke-miterlimit="10" points="459.018,320.052 508.018,320.052 482.752,344.858 	"/>
	<polygon fill="#333333" stroke="#333333" stroke-miterlimit="10" points="459.018,319.222 508.018,319.222 482.752,289.219 	"/>
	<polygon fill="#666666" stroke="#666666" stroke-miterlimit="10" points="354.963,320.306 305.963,320.306 331.229,345.112 	"/>
	<polygon fill="#333333" stroke="#333333" stroke-miterlimit="10" points="354.838,319.334 305.838,319.334 331.104,289.331 	"/>
	<path fill="#4D4D4D" stroke="#404040" stroke-miterlimit="10" d="M430.053,396.775h-46.787
		c7.852,7.781,15.704,15.563,23.556,23.344c7.813-7.781,15.624-15.563,23.438-23.345L430.053,396.775z"/>
</g>
</svg>
